# xmcd
#
# Track frame offsets:
#	150
#	7920
#	32119
#	41710
#	62589
#	75608
#	96291
#	112703
#	122883
#	132976
#	141653
#	161518
#	180934
#	198098
#	211580
#	221528
#	237327
#	249714
#
# Disc length: 3467 seconds
#
# Revision: 1
# Processed by: cddbd v1.5.2PL0 Copyright (c) Steve Scherf et al.
# Submitted via: audiograbber 1.83.01
#
DISCID=f10d8912
DTITLE=Wekenenn - Musik op Platt
DYEAR=2014
DGENRE=Blues
TTITLE0=Open Strings
TTITLE1=Undöög (Taugenichts)
TTITLE2=Tosoopen
TTITLE3=Mörgen
TTITLE4=Callow
TTITLE5=Schietenpiependiddi
TTITLE6=Fründ
TTITLE7=Together
TTITLE8=Eensom Eiland
TTITLE9=Tunxdorf
TTITLE10=Frida
TTITLE11=Komm toorüch
TTITLE12=Weekenen
TTITLE13=Hey Now
TTITLE14=Een, twee, dree o' Klock
TTITLE15=Mut dat denn so wesen
TTITLE16=12 Strings
TTITLE17=Werners Blues
EXTD=
EXTT0=by cml speekeroug 2017
EXTT1=
EXTT2=
EXTT3=
EXTT4=
EXTT5=
EXTT6=
EXTT7=
EXTT8=
EXTT9=
EXTT10=
EXTT11=
EXTT12=
EXTT13=
EXTT14=
EXTT15=
EXTT16=
EXTT17=
PLAYORDER=
